<?xml version="1.0" encoding="UTF-8"?>
<svg version="1.1" xmlns="http://www.w3.org/2000/svg" width="291" height="141">
<path d="M0 0 C96.03 0 192.06 0 291 0 C291 46.53 291 93.06 291 141 C194.97 141 98.94 141 0 141 C0 94.47 0 47.94 0 0 Z " fill="#FDFDFD" transform="translate(0,0)"/>
<path d="M0 0 C8.699597 3.04427351 14.28939415 8.09291161 19 16 C21.20139334 21.6869328 20.25412835 27.60526165 17.96875 33.0859375 C13.39187611 42.12895447 4.85362436 46.12982237 -4.30859375 49.27734375 C-8.10989753 50.29801312 -11.08659009 50.42691744 -15 50 C-17 48 -17 48 -17.24291992 45.38061523 C-17.23881104 44.28434814 -17.23470215 43.18808105 -17.23046875 42.05859375 C-17.22942139 40.84220215 -17.22837402 39.62581055 -17.22729492 38.37255859 C-17.2141626 37.07398926 -17.20103027 35.77541992 -17.1875 34.4375 C-17.17887939 33.12604004 -17.17025879 31.81458008 -17.16137695 30.46337891 C-16.91379175 3.51480914 -16.91379175 3.51480914 -14.8359375 0.0703125 C-10.50066809 -2.45705733 -4.69739985 -0.87642045 0 0 Z " fill="#070707" transform="translate(29,33)"/>
<path d="M0 0 C3.91801564 2.05467062 6.37244194 4.15583319 7.96484375 8.27734375 C8.50280774 13.11901968 8.52888003 15.22984781 6.21484375 19.52734375 C4.24080933 21.94005249 2.24791677 24.15734737 -0.03515625 26.27734375 C1.3243037 29.3444997 2.8449191 31.35475417 5.27734375 33.65234375 C13.67020417 41.86962132 13.67020417 41.86962132 14.52734375 45.96484375 C13.96484375 48.27734375 13.96484375 48.27734375 12.27734375 50.08984375 C9.39779828 51.56852926 8.17403469 51.82446943 4.96484375 51.27734375 C2.77840519 49.24098374 0.92920397 47.3017835 -0.97265625 45.02734375 C-4.69412148 40.65762328 -8.0962112 37.25101558 -13.03515625 34.27734375 C-14.52238314 38.73902441 -14.42508137 43.25221168 -14.65625 47.9296875 C-15.00024414 50.96889344 -15.34807264 52.76788246 -17.03515625 55.27734375 C-19.79765661 56.65859393 -21.98246724 56.46813681 -25.03515625 56.27734375 C-27.51189715 53.80060285 -27.29242898 52.35456625 -27.31323242 48.97094727 C-27.30396729 48.24705811 -27.29470215 47.52316895 -27.28515625 46.77734375 C-27.27911377 46.02702881 -27.27307129 45.27671387 -27.2668457 44.50366211 C-26.73940347 13.66587316 -26.73940347 13.66587316 -16.8515625 2.87109375 C-11.99543238 -1.3897688 -6.08312411 -2.16003447 0 0 Z " fill="#060606" transform="translate(84.03515625,37.72265625)"/>
<path d="M0 0 C3 0.1875 3 0.1875 6 1 C8 4 8 4 7.9140625 7.1484375 C6.60898766 12.64759902 3.90518629 17.02004001 1.0625 21.859375 C-1.33579692 26.03971934 -1.33579692 26.03971934 -2.02734375 30.71875 C-0.73710916 33.5837576 0.95490943 35.54810106 3.0625 37.875 C5.83593672 41.21008251 6.92690146 42.58134475 7.6875 46.9375 C7 50 7 50 5.8125 52 C4 53 4 53 1.65625 52.83984375 C-1.72078491 51.77210477 -3.03374608 50.24464915 -5.3125 47.5625 C-6.00988281 46.75941406 -6.70726562 45.95632812 -7.42578125 45.12890625 C-9 43 -9 43 -9 41 C-9.66 41 -10.32 41 -11 41 C-11.20625 41.66 -11.4125 42.32 -11.625 43 C-12.85169102 45.67641677 -14.14475892 47.89877705 -15.8125 50.3125 C-16.29332031 51.00988281 -16.77414063 51.70726562 -17.26953125 52.42578125 C-19 54 -19 54 -21.55078125 54.3359375 C-24 54 -24 54 -26.375 52.3125 C-28 50 -28 50 -27.859375 47.765625 C-26.57163656 43.62144858 -24.13250931 40.27750108 -21.70703125 36.72851562 C-19.55874998 33.65487712 -19.55874998 33.65487712 -19.24243164 30.06616211 C-20.08594341 27.76560132 -21.16050693 25.93200128 -22.50390625 23.8828125 C-22.99697266 23.11066406 -23.49003906 22.33851562 -23.99804688 21.54296875 C-25.0386132 19.9347027 -26.08547536 18.33049221 -27.13867188 16.73046875 C-31.94008429 9.16651367 -31.94008429 9.16651367 -31 4 C-29 2 -29 2 -25.71484375 1.4140625 C-21.70466526 2.04658277 -21.38983902 2.17855147 -19.12890625 5.2109375 C-18.2481552 6.58305492 -17.39326072 7.97205123 -16.5625 9.375 C-16.11712891 10.07367188 -15.67175781 10.77234375 -15.21289062 11.4921875 C-12 16.62491599 -12 16.62491599 -12 19 C-11.34 19 -10.68 19 -10 19 C-9.79375 18.236875 -9.5875 17.47375 -9.375 16.6875 C-7.2062158 10.8712151 -4.43178004 4.43178004 0 0 Z " fill="#060606" transform="translate(272,35)"/>
<path d="M0 0 C0.86367187 -0.01224609 1.72734375 -0.02449219 2.6171875 -0.03710938 C3.4525 -0.03904297 4.2878125 -0.04097656 5.1484375 -0.04296875 C6.2919165 -0.04913208 6.2919165 -0.04913208 7.45849609 -0.05541992 C9.96871182 0.22603879 11.53043262 0.77396887 13.625 2.1875 C14.5625 5.625 14.5625 5.625 14.625 9.1875 C13.609375 10.8984375 13.609375 10.8984375 11.625 12.1875 C8.97503674 12.4047101 6.57423442 12.47101554 3.9375 12.375 C3.23560547 12.36146484 2.53371094 12.34792969 1.81054688 12.33398438 C0.08170171 12.29870182 -1.64674765 12.24489583 -3.375 12.1875 C-3.375 15.1575 -3.375 18.1275 -3.375 21.1875 C-2.116875 21.125625 -0.85875 21.06375 0.4375 21 C3.01969981 21.01831347 4.36951965 21.05588891 6.6875 22.25 C8.19168055 25.35863981 7.35265436 27.91305538 6.625 31.1875 C5.625 32.1875 5.625 32.1875 2.90234375 32.28515625 C1.80019531 32.27355469 0.69804687 32.26195312 -0.4375 32.25 C-1.54222656 32.24097656 -2.64695313 32.23195312 -3.78515625 32.22265625 C-4.63980469 32.21105469 -5.49445313 32.19945312 -6.375 32.1875 C-6.375 35.1575 -6.375 38.1275 -6.375 41.1875 C-5.11042969 41.15269531 -3.84585938 41.11789063 -2.54296875 41.08203125 C-0.88282577 41.05389323 0.77733156 41.02659309 2.4375 41 C3.27087891 40.97486328 4.10425781 40.94972656 4.96289062 40.92382812 C6.16655273 40.90932617 6.16655273 40.90932617 7.39453125 40.89453125 C8.13292236 40.8788208 8.87131348 40.86311035 9.63208008 40.84692383 C12.1945019 41.28482392 13.05867708 42.14979194 14.625 44.1875 C15.0403986 46.95682397 15.11740189 48.47087651 13.51196289 50.80737305 C10.74378746 52.83201992 8.46012893 52.65797143 5.05859375 52.76953125 C3.76888672 52.81400391 2.47917969 52.85847656 1.15039062 52.90429688 C0.47983643 52.91968506 -0.19071777 52.93507324 -0.8815918 52.95092773 C-2.93448228 52.99992797 -4.9851733 53.07540461 -7.03710938 53.15429688 C-14.47817629 53.37391816 -14.47817629 53.37391816 -17.375 53.1875 C-19.375 51.1875 -19.375 51.1875 -19.61865234 49.32446289 C-19.53989106 43.96340538 -18.98931594 38.890163 -18 33.625 C-16.69378135 26.34542513 -15.73356823 19.09688753 -15 11.73828125 C-14.29480964 7.73191851 -13.19936409 4.81342363 -11.375 1.1875 C-7.86791173 -0.56604414 -3.86288251 0.00285716 0 0 Z " fill="#060606" transform="translate(197.375,30.8125)"/>
<path d="M0 0 C3.5 1.0625 3.5 1.0625 5.1875 3.75 C5.66796692 5.17371487 6.09675597 6.6150171 6.5 8.0625 C6.81582031 9.16207031 7.13164062 10.26164062 7.45703125 11.39453125 C8.13500335 13.77886011 8.79613347 16.16806494 9.4375 18.5625 C10.55067069 22.22941523 11.93217524 25.57052668 13.5 29.0625 C13.78721924 28.34594238 14.07443848 27.62938477 14.37036133 26.89111328 C15.67475884 23.65259098 16.9934212 20.42006863 18.3125 17.1875 C18.76431641 16.05957031 19.21613281 14.93164062 19.68164062 13.76953125 C20.12314453 12.69316406 20.56464844 11.61679687 21.01953125 10.5078125 C21.42276611 9.51281738 21.82600098 8.51782227 22.24145508 7.49267578 C23.5 5.0625 23.5 5.0625 26.5 3.0625 C29.31938897 2.71007638 30.88860077 2.71604043 33.375 4.125 C35.13690849 7.15939795 34.33556983 9.81071186 33.5 13.0625 C31.91656001 17.40634161 30.092031 21.63544302 28.25 25.875 C27.53263672 27.56206055 27.53263672 27.56206055 26.80078125 29.28320312 C25.39685314 32.55713303 23.96085606 35.81360255 22.5 39.0625 C22.05470947 40.05306396 21.60941895 41.04362793 21.15063477 42.06420898 C20.72580811 42.96598877 20.30098145 43.86776855 19.86328125 44.796875 C19.49243408 45.58932617 19.12158691 46.38177734 18.73950195 47.19824219 C17.5 49.0625 17.5 49.0625 13.9375 50.5 C10.5 50.0625 10.5 50.0625 8.375 48.3125 C3.2236873 39.38355798 -0.20813609 29.80234478 -3.5 20.0625 C-3.82355469 19.12792969 -4.14710938 18.19335938 -4.48046875 17.23046875 C-6.19196475 11.99955844 -7.09025852 7.57157949 -6.5 2.0625 C-3.5 0.0625 -3.5 0.0625 0 0 Z " fill="#050505" transform="translate(135.5,39.9375)"/>
<path d="M0 0 C3.3125 0.8125 3.3125 0.8125 4.3125 1.8125 C4.27167997 4.26484184 4.16039319 6.67920337 4 9.125 C3.95077393 9.89739014 3.90154785 10.66978027 3.85083008 11.46557617 C3.73713647 13.22978154 3.62133705 14.99385195 3.50390625 16.7578125 C3.28874689 20.19158023 3.11361217 23.62651564 2.9375 27.0625 C2.79258036 29.58338603 2.64674827 32.10421976 2.5 34.625 C2.44223389 35.84678955 2.38446777 37.0685791 2.32495117 38.32739258 C2.25252197 39.48392334 2.18009277 40.6404541 2.10546875 41.83203125 C2.02075317 43.38047729 2.02075317 43.38047729 1.93432617 44.96020508 C1.16715385 48.47919773 -0.1864356 50.25588854 -2.6875 52.8125 C-5.25 53.3125 -5.25 53.3125 -7.6875 52.8125 C-9.32324219 51.66552734 -9.32324219 51.66552734 -10.6875 49.8125 C-11.81365794 40.550259 -10.46991399 30.58424342 -9.62548828 21.30419922 C-9.43467724 19.15571645 -9.27015403 17.00609329 -9.10546875 14.85546875 C-8.98336839 13.47381622 -8.85972913 12.09229862 -8.734375 10.7109375 C-8.62963867 9.48036621 -8.52490234 8.24979492 -8.41699219 6.98193359 C-7.21818464 1.77345986 -5.40093503 -0.27462382 0 0 Z " fill="#080808" transform="translate(116.6875,35.1875)"/>
<path d="M0 0 C3.96074927 0.56582132 6.72259306 1.69695729 10 4 C12.1017721 7.15265815 12.54556372 9.10363108 12.44140625 12.8671875 C11.62195776 16.82664659 9.22901175 19.66196801 6 22 C3.68993672 22.74330112 1.35702396 23.42265525 -1 24 C-1.02712325 21.12493579 -1.04689851 18.25013092 -1.0625 15.375 C-1.07087891 14.56675781 -1.07925781 13.75851563 -1.08789062 12.92578125 C-1.1058955 8.49658082 -0.89622662 4.36116576 0 0 Z " fill="#FBFBFB" transform="translate(25,45)"/>
<path d="M0 0 C0.99 0.66 1.98 1.32 3 2 C3.39964378 5.1305429 3.52149743 7.13083761 1.875 9.875 C-0.88090884 11.52854531 -2.85075452 11.39365568 -6 11 C-7.9375 9.9375 -7.9375 9.9375 -9 8 C-8.8125 4.375 -8.8125 4.375 -8 1 C-5.22899606 -0.38550197 -3.0665294 -0.1877467 0 0 Z " fill="#070707" transform="translate(229,75)"/>
<path d="M0 0 C2.625 0.375 2.625 0.375 5 1 C5.625 3.375 5.625 3.375 6 6 C4 8 4 8 1.375 8.125 C0.59125 8.08375 -0.1925 8.0425 -1 8 C-1.625 5.125 -1.625 5.125 -2 2 C-1.34 1.34 -0.68 0.68 0 0 Z " fill="#ABABAB" transform="translate(195,112)"/>
<path d="M0 0 C2.5 0.125 2.5 0.125 3.5 1.125 C3.625 4.125 3.625 4.125 3.5 7.125 C2.5 8.125 2.5 8.125 0 8.25 C-2.5 8.125 -2.5 8.125 -3.5 7.125 C-3.625 4.125 -3.625 4.125 -3.5 1.125 C-2.5 0.125 -2.5 0.125 0 0 Z " fill="#575757" transform="translate(131.5,111.875)"/>
<path d="M0 0 C-0.15240609 2.66710654 -0.49364919 4.4505871 -2.33203125 6.4453125 C-6.50625 10 -6.50625 10 -9 10 C-8.69121904 6.39755548 -8.00552268 5.00654002 -5.625 2.1875 C-3 0 -3 0 0 0 Z " fill="#E0E0E0" transform="translate(80,48)"/>
<path d="M0 0 C0.66 0 1.32 0 2 0 C4.125 4.625 4.125 4.625 3 8 C3 7.34 3 6.68 3 6 C1.68 6 0.36 6 -1 6 C-1 6.66 -1 7.32 -1 8 C-1.66 7.67 -2.32 7.34 -3 7 C-2.01 4.69 -1.02 2.38 0 0 Z " fill="#777777" transform="translate(93,112)"/>
<path d="M0 0 C2.475 0.495 2.475 0.495 5 1 C5 1.99 5 2.98 5 4 C4.34 4 3.68 4 3 4 C2.34 5.32 1.68 6.64 1 8 C0.67 8 0.34 8 0 8 C0 5.36 0 2.72 0 0 Z " fill="#737373" transform="translate(102,112)"/>
<path d="M0 0 C1.98 0.495 1.98 0.495 4 1 C3.67 2.65 3.34 4.3 3 6 C1.68 5.67 0.36 5.34 -1 5 C-0.67 3.35 -0.34 1.7 0 0 Z " fill="#FCFCFC" transform="translate(130,113)"/>
<path d="M0 0 C0.66 0 1.32 0 2 0 C3.625 2 3.625 2 5 4 C4.67 4.66 4.34 5.32 4 6 C3.67 5.67 3.34 5.34 3 5 C2.67 5.99 2.34 6.98 2 8 C1.34 8 0.68 8 0 8 C0 5.36 0 2.72 0 0 Z " fill="#818181" transform="translate(205,112)"/>
</svg>
